# xmcd CD database file generated by OrangeCD 5.2
#
# Track frame offsets:
#	150
#	14252
#	24304
#	35631
#	49508
#	67510
#	78462
#	103514
#	120766
#	138393
#	174320
#	197347
#	217149
#	238601
#
# Disc length: 3429 seconds
#
# Revision: 1
# Processed by: cddbd v1.5.1PL0 Copyright (c) Steve Scherf et al.
# Submitted via: OrangeCD 5.2
#
DISCID=a70d630e
DTITLE=Pignose and the Bluesmobile - Blues 'n' Soul - Live!
DYEAR=1997
DGENRE=Blues
TTITLE0=Soulmann
TTITLE1=Midnight Hour
TTITLE2=Gimme some lovin'
TTITLE3=I wanna know
TTITLE4=Talk about it
TTITLE5=I feel good
TTITLE6=Mustang Sally
TTITLE7=It wont be long
TTITLE8=Unchain my heart
TTITLE9=Crazy life
TTITLE10=Blues of the month club
TTITLE11=That's right
TTITLE12=Workin' too hard
TTITLE13=Land of thousand dances
EXTD=
EXTT0=
EXTT1=
EXTT2=
EXTT3=
EXTT4=
EXTT5=
EXTT6=
EXTT7=
EXTT8=
EXTT9=
EXTT10=
EXTT11=
EXTT12=
EXTT13=
PLAYORDER=
